<mxfile host="65bd71144e">
    <diagram id="dCPiralBxNUOIt6SO4mJ" name="Page-1">
        <mxGraphModel dx="1439" dy="779" grid="1" gridSize="10" guides="1" tooltips="1" connect="1" arrows="1" fold="1" page="1" pageScale="1" pageWidth="850" pageHeight="1100" math="0" shadow="0">
            <root>
                <mxCell id="0"/>
                <mxCell id="1" parent="0"/>
                <mxCell id="27" value="" style="rounded=0;whiteSpace=wrap;html=1;strokeWidth=3;" parent="1" vertex="1">
                    <mxGeometry x="-820" y="190" width="1360" height="320" as="geometry"/>
                </mxCell>
                <mxCell id="36" value="Table" style="shape=table;startSize=30;container=1;collapsible=0;childLayout=tableLayout;fontStyle=1;align=center;strokeWidth=3;fillColor=#f8cecc;strokeColor=#b85450;" parent="1" vertex="1">
                    <mxGeometry x="359" y="303.8400000000001" width="132" height="110.15999999999985" as="geometry"/>
                </mxCell>
                <mxCell id="37" value="" style="shape=tableRow;horizontal=0;startSize=0;swimlaneHead=0;swimlaneBody=0;top=0;left=0;bottom=0;right=0;collapsible=0;dropTarget=0;fillColor=none;points=[[0,0.5],[1,0.5]];portConstraint=eastwest;strokeWidth=3;" parent="36" vertex="1">
                    <mxGeometry y="30" width="132" height="26" as="geometry"/>
                </mxCell>
                <mxCell id="38" value="" style="shape=partialRectangle;html=1;whiteSpace=wrap;connectable=0;fillColor=none;top=0;left=0;bottom=0;right=0;overflow=hidden;strokeWidth=3;" parent="37" vertex="1">
                    <mxGeometry width="44" height="26" as="geometry">
                        <mxRectangle width="44" height="26" as="alternateBounds"/>
                    </mxGeometry>
                </mxCell>
                <mxCell id="39" value="" style="shape=partialRectangle;html=1;whiteSpace=wrap;connectable=0;fillColor=none;top=0;left=0;bottom=0;right=0;overflow=hidden;strokeWidth=3;" parent="37" vertex="1">
                    <mxGeometry x="44" width="44" height="26" as="geometry">
                        <mxRectangle width="44" height="26" as="alternateBounds"/>
                    </mxGeometry>
                </mxCell>
                <mxCell id="40" value="" style="shape=partialRectangle;html=1;whiteSpace=wrap;connectable=0;fillColor=none;top=0;left=0;bottom=0;right=0;overflow=hidden;strokeWidth=3;" parent="37" vertex="1">
                    <mxGeometry x="88" width="44" height="26" as="geometry">
                        <mxRectangle width="44" height="26" as="alternateBounds"/>
                    </mxGeometry>
                </mxCell>
                <mxCell id="41" value="" style="shape=tableRow;horizontal=0;startSize=0;swimlaneHead=0;swimlaneBody=0;top=0;left=0;bottom=0;right=0;collapsible=0;dropTarget=0;fillColor=none;points=[[0,0.5],[1,0.5]];portConstraint=eastwest;strokeWidth=3;" parent="36" vertex="1">
                    <mxGeometry y="56" width="132" height="28" as="geometry"/>
                </mxCell>
                <mxCell id="42" value="" style="shape=partialRectangle;html=1;whiteSpace=wrap;connectable=0;fillColor=none;top=0;left=0;bottom=0;right=0;overflow=hidden;strokeWidth=3;" parent="41" vertex="1">
                    <mxGeometry width="44" height="28" as="geometry">
                        <mxRectangle width="44" height="28" as="alternateBounds"/>
                    </mxGeometry>
                </mxCell>
                <mxCell id="43" value="" style="shape=partialRectangle;html=1;whiteSpace=wrap;connectable=0;fillColor=none;top=0;left=0;bottom=0;right=0;overflow=hidden;strokeWidth=3;" parent="41" vertex="1">
                    <mxGeometry x="44" width="44" height="28" as="geometry">
                        <mxRectangle width="44" height="28" as="alternateBounds"/>
                    </mxGeometry>
                </mxCell>
                <mxCell id="44" value="" style="shape=partialRectangle;html=1;whiteSpace=wrap;connectable=0;fillColor=none;top=0;left=0;bottom=0;right=0;overflow=hidden;strokeWidth=3;" parent="41" vertex="1">
                    <mxGeometry x="88" width="44" height="28" as="geometry">
                        <mxRectangle width="44" height="28" as="alternateBounds"/>
                    </mxGeometry>
                </mxCell>
                <mxCell id="45" value="" style="shape=tableRow;horizontal=0;startSize=0;swimlaneHead=0;swimlaneBody=0;top=0;left=0;bottom=0;right=0;collapsible=0;dropTarget=0;fillColor=none;points=[[0,0.5],[1,0.5]];portConstraint=eastwest;strokeWidth=3;" parent="36" vertex="1">
                    <mxGeometry y="84" width="132" height="26" as="geometry"/>
                </mxCell>
                <mxCell id="46" value="" style="shape=partialRectangle;html=1;whiteSpace=wrap;connectable=0;fillColor=none;top=0;left=0;bottom=0;right=0;overflow=hidden;strokeWidth=3;" parent="45" vertex="1">
                    <mxGeometry width="44" height="26" as="geometry">
                        <mxRectangle width="44" height="26" as="alternateBounds"/>
                    </mxGeometry>
                </mxCell>
                <mxCell id="47" value="" style="shape=partialRectangle;html=1;whiteSpace=wrap;connectable=0;fillColor=none;top=0;left=0;bottom=0;right=0;overflow=hidden;strokeWidth=3;" parent="45" vertex="1">
                    <mxGeometry x="44" width="44" height="26" as="geometry">
                        <mxRectangle width="44" height="26" as="alternateBounds"/>
                    </mxGeometry>
                </mxCell>
                <mxCell id="48" value="" style="shape=partialRectangle;html=1;whiteSpace=wrap;connectable=0;fillColor=none;top=0;left=0;bottom=0;right=0;overflow=hidden;strokeWidth=3;" parent="45" vertex="1">
                    <mxGeometry x="88" width="44" height="26" as="geometry">
                        <mxRectangle width="44" height="26" as="alternateBounds"/>
                    </mxGeometry>
                </mxCell>
                <mxCell id="54" style="edgeStyle=none;html=1;strokeWidth=3;" parent="1" edge="1">
                    <mxGeometry relative="1" as="geometry">
                        <mxPoint x="-410" y="355" as="sourcePoint"/>
                        <mxPoint x="-310" y="355" as="targetPoint"/>
                    </mxGeometry>
                </mxCell>
                <mxCell id="51" value="" style="outlineConnect=0;dashed=0;verticalLabelPosition=bottom;verticalAlign=top;align=center;html=1;shape=mxgraph.aws3.mysql_db_instance;fillColor=#2E73B8;gradientColor=none;strokeWidth=3;" parent="1" vertex="1">
                    <mxGeometry x="-530" y="298.56" width="105.14" height="113.03" as="geometry"/>
                </mxCell>
                <mxCell id="64" style="edgeStyle=none;html=1;strokeWidth=3;" parent="1" edge="1">
                    <mxGeometry relative="1" as="geometry">
                        <mxPoint x="-540" y="353.75" as="targetPoint"/>
                        <mxPoint x="-620" y="354" as="sourcePoint"/>
                    </mxGeometry>
                </mxCell>
                <mxCell id="53" value="Script" style="html=1;strokeColor=#2D7600;fillColor=#60a917;labelPosition=center;verticalLabelPosition=middle;verticalAlign=top;align=center;fontSize=12;outlineConnect=0;spacingTop=-6;sketch=0;shape=mxgraph.sitemap.script;fontColor=#ffffff;" parent="1" vertex="1">
                    <mxGeometry x="-772.24" y="313.28999999999996" width="130" height="80.92" as="geometry"/>
                </mxCell>
                <mxCell id="55" value="" style="aspect=fixed;html=1;points=[];align=center;image;fontSize=12;image=img/lib/azure2/databases/Azure_Database_MySQL_Server.svg;strokeWidth=3;" parent="1" vertex="1">
                    <mxGeometry x="-60.35" y="295.17" width="95.63" height="127.5" as="geometry"/>
                </mxCell>
                <mxCell id="58" value="" style="sketch=0;aspect=fixed;html=1;points=[];align=center;image;fontSize=12;image=img/lib/mscae/SQL_Servers.svg;strokeWidth=3;" parent="1" vertex="1">
                    <mxGeometry x="140" y="290.89000000000004" width="128.56" height="128.56" as="geometry"/>
                </mxCell>
                <mxCell id="61" value="" style="shadow=0;dashed=0;html=1;strokeColor=none;fillColor=#4495D1;labelPosition=center;verticalLabelPosition=bottom;verticalAlign=top;align=center;outlineConnect=0;shape=mxgraph.veeam.checked_doc;strokeWidth=4;fontSize=20;fontColor=#FFFFFF;" parent="1" vertex="1">
                    <mxGeometry x="-675.5799999999999" y="217.79999999999998" width="58.67" height="71.14" as="geometry"/>
                </mxCell>
                <mxCell id="62" value="" style="shadow=0;dashed=0;html=1;strokeColor=none;fillColor=#008a00;labelPosition=center;verticalLabelPosition=bottom;verticalAlign=top;align=center;outlineConnect=0;shape=mxgraph.veeam.checked_doc;strokeWidth=4;fontSize=20;fontColor=#ffffff;" parent="1" vertex="1">
                    <mxGeometry x="-735.5799999999999" y="216.99" width="56.68" height="68.73" as="geometry"/>
                </mxCell>
                <mxCell id="63" value="" style="shadow=0;dashed=0;html=1;strokeColor=#B20000;fillColor=#e51400;labelPosition=center;verticalLabelPosition=bottom;verticalAlign=top;align=center;outlineConnect=0;shape=mxgraph.veeam.checked_doc;fontColor=#ffffff;" parent="1" vertex="1">
                    <mxGeometry x="-793.1" y="215.97" width="57.52" height="69.75" as="geometry"/>
                </mxCell>
                <mxCell id="65" value="&lt;font color=&quot;#000000&quot;&gt;Coleta de Dados&lt;/font&gt;" style="text;html=1;strokeColor=none;fillColor=none;align=center;verticalAlign=middle;whiteSpace=wrap;rounded=0;strokeWidth=4;fontSize=20;fontColor=#4A6B9E;" parent="1" vertex="1">
                    <mxGeometry x="-799.9899999999999" y="419.45000000000005" width="185.5" height="30" as="geometry"/>
                </mxCell>
                <mxCell id="66" value="&lt;font color=&quot;#000000&quot;&gt;Estabelece Conexão com BD&lt;/font&gt;" style="text;html=1;strokeColor=none;fillColor=none;align=center;verticalAlign=middle;whiteSpace=wrap;rounded=0;strokeWidth=4;fontSize=20;fontColor=#4A6B9E;" parent="1" vertex="1">
                    <mxGeometry x="-570.18" y="422.6700000000001" width="185.5" height="30" as="geometry"/>
                </mxCell>
                <mxCell id="67" value="&lt;font color=&quot;#000000&quot;&gt;Criação da &lt;br&gt;Estrutura de DB&lt;/font&gt;" style="text;html=1;strokeColor=none;fillColor=none;align=center;verticalAlign=middle;whiteSpace=wrap;rounded=0;strokeWidth=4;fontSize=20;fontColor=#4A6B9E;" parent="1" vertex="1">
                    <mxGeometry x="-368.36" y="422.67" width="254.93" height="30" as="geometry"/>
                </mxCell>
                <mxCell id="68" value="&lt;font color=&quot;#000000&quot;&gt;Execução de Consulta (Query)&lt;/font&gt;" style="text;html=1;strokeColor=none;fillColor=none;align=center;verticalAlign=middle;whiteSpace=wrap;rounded=0;strokeWidth=4;fontSize=20;fontColor=#4A6B9E;" parent="1" vertex="1">
                    <mxGeometry x="110.00000000000003" y="430.7200000000001" width="185.5" height="30" as="geometry"/>
                </mxCell>
                <mxCell id="74" style="edgeStyle=none;html=1;strokeWidth=3;" parent="1" edge="1">
                    <mxGeometry relative="1" as="geometry">
                        <mxPoint x="-80" y="355.08000000000015" as="targetPoint"/>
                        <mxPoint x="-180" y="355" as="sourcePoint"/>
                    </mxGeometry>
                </mxCell>
                <mxCell id="70" value="" style="aspect=fixed;html=1;points=[];align=center;image;fontSize=12;image=img/lib/azure2/databases/SQL_Database.svg;strokeWidth=3;" parent="1" vertex="1">
                    <mxGeometry x="-288.07" y="290" width="94.35" height="125.8" as="geometry"/>
                </mxCell>
                <mxCell id="75" value="&lt;font color=&quot;#000000&quot;&gt;Inserção de &lt;br&gt;Dados no DB&lt;/font&gt;" style="text;html=1;strokeColor=none;fillColor=none;align=center;verticalAlign=middle;whiteSpace=wrap;rounded=0;strokeWidth=4;fontSize=20;fontColor=#4A6B9E;" parent="1" vertex="1">
                    <mxGeometry x="-140" y="430.72" width="254.93" height="30" as="geometry"/>
                </mxCell>
                <mxCell id="77" value="&lt;font color=&quot;#000000&quot;&gt;Visualização de &lt;br&gt;Dados no DB&lt;/font&gt;" style="text;html=1;strokeColor=none;fillColor=none;align=center;verticalAlign=middle;whiteSpace=wrap;rounded=0;strokeWidth=4;fontSize=20;fontColor=#4A6B9E;" parent="1" vertex="1">
                    <mxGeometry x="313.25" y="430.72" width="226.75" height="30" as="geometry"/>
                </mxCell>
                <mxCell id="78" style="edgeStyle=none;html=1;strokeWidth=3;" parent="1" edge="1">
                    <mxGeometry relative="1" as="geometry">
                        <mxPoint x="130" y="354.67" as="targetPoint"/>
                        <mxPoint x="50" y="354.92" as="sourcePoint"/>
                    </mxGeometry>
                </mxCell>
                <mxCell id="79" style="edgeStyle=none;html=1;strokeWidth=3;" parent="1" edge="1">
                    <mxGeometry relative="1" as="geometry">
                        <mxPoint x="340" y="352.4" as="targetPoint"/>
                        <mxPoint x="260" y="352.65" as="sourcePoint"/>
                    </mxGeometry>
                </mxCell>
            </root>
        </mxGraphModel>
    </diagram>
</mxfile>